<svg version="1.1" id="Layer_1" xmlns="http://www.w3.org/2000/svg" xmlns:xlink="http://www.w3.org/1999/xlink" x="0px" y="0px"
	 width="100%" viewBox="0 0 680 441" enable-background="new 0 0 680 441" xml:space="preserve">
<path fill="#020202" opacity="1.000000" stroke="none" 
	d="
M418.000000,442.000000 
	C278.697632,442.000000 139.895248,442.000000 1.046436,442.000000 
	C1.046436,295.063751 1.046436,148.127472 1.046436,1.095603 
	C227.552353,1.095603 454.104767,1.095603 680.828613,1.095603 
	C680.828613,147.999847 680.828613,294.999908 680.828613,442.000000 
	C593.460876,442.000000 505.980438,442.000000 418.000000,442.000000 
M293.037445,36.587067 
	C279.642395,36.587067 266.247314,36.587067 252.815887,36.587067 
	C252.674210,38.090530 252.559250,38.742092 252.559067,39.393688 
	C252.547852,80.375801 252.502487,121.358078 252.662964,162.339554 
	C252.671616,164.546341 253.947952,167.138687 255.419815,168.892059 
	C291.406219,211.761749 327.524139,254.521027 363.511810,297.389618 
	C365.690979,299.985413 367.938110,300.804413 371.181946,300.786469 
	C392.338745,300.669495 413.496490,300.728882 434.653931,300.730560 
	C436.579071,300.730713 438.504242,300.730560 441.891418,300.730560 
	C391.839905,241.429276 342.669800,183.172287 293.499695,124.915306 
	C293.707825,124.497505 293.915985,124.079712 294.124115,123.661911 
	C323.539398,123.661911 352.954681,123.661911 383.121704,123.661911 
	C382.049103,122.341057 381.681000,121.789803 381.219299,121.333199 
	C353.501862,93.921646 325.785889,66.508667 298.019440,39.146877 
	C296.901886,38.045605 295.300140,37.435661 293.037445,36.587067 
M236.422073,138.237732 
	C236.422073,99.487518 236.422073,60.737312 236.422073,21.710278 
	C238.717529,21.609869 240.350189,21.477982 241.982971,21.476406 
	C257.978516,21.460962 273.975311,21.572096 289.968719,21.387804 
	C293.609009,21.345858 296.137970,22.458534 298.711395,25.011961 
	C331.828522,57.871754 365.091797,90.584396 398.154114,123.499001 
	C399.990509,125.327202 401.303162,128.590439 401.321838,131.196747 
	C401.538025,161.353470 401.453400,191.512314 401.466278,221.670593 
	C401.467010,223.377319 401.621552,225.083984 401.733948,227.396500 
	C411.810211,222.199692 420.175720,216.244156 427.273956,208.612259 
	C455.170502,178.618347 463.728119,143.683472 450.424988,105.061790 
	C437.212036,66.702011 409.336548,43.895824 369.014069,37.846317 
	C356.596832,35.983383 343.753418,37.052593 331.120483,36.454887 
	C328.746643,36.342575 325.924774,35.252487 324.202332,33.652561 
	C317.247894,27.192793 310.767914,20.222534 303.820099,13.755157 
	C302.101135,12.155052 299.290161,10.923143 296.968048,10.900993 
	C274.809540,10.689631 252.648209,10.769165 230.487717,10.788968 
	C229.058121,10.790246 227.628708,10.988154 225.940948,11.113823 
	C225.940948,13.327571 225.940964,15.136818 225.940964,16.946066 
	C225.940933,53.769169 226.207809,90.595650 225.741364,127.412849 
	C225.633301,135.941757 231.212173,139.641907 236.421326,144.525787 
	C236.421326,142.732590 236.421326,140.939407 236.422073,138.237732 
M316.998230,274.503174 
	C316.998230,272.171143 316.725098,269.800323 317.049896,267.514435 
	C317.991455,260.888153 315.385254,256.003448 311.098694,250.988159 
	C283.934357,219.205826 257.086853,187.152710 230.126511,155.195969 
	C229.119858,154.002762 228.026962,152.882309 226.359985,151.054352 
	C226.359985,201.536011 226.359985,250.986481 226.359985,300.365540 
	C229.857132,300.365540 232.926147,300.365540 236.721344,300.365540 
	C236.721344,260.547516 236.721344,221.094498 236.721344,181.641495 
	C241.566986,185.724335 245.624863,189.887817 248.920517,194.585968 
	C250.773071,197.226913 252.348618,200.742645 252.375107,203.878387 
	C252.629730,234.027557 252.527664,264.179749 252.527725,294.331085 
	C252.527740,296.285492 252.527756,298.239899 252.527756,300.344757 
	C274.311249,300.344757 295.501923,300.344757 316.998230,300.344757 
	C316.998230,291.803772 316.998230,283.652893 316.998230,274.503174 
M509.031281,358.500000 
	C509.031281,376.265472 509.031281,394.030975 509.031281,411.879364 
	C516.079407,411.879364 522.507568,411.879364 529.384888,411.879364 
	C529.384888,401.678375 529.384888,391.728973 529.384888,381.469727 
	C534.233032,381.469727 538.629089,381.469727 543.668762,381.469727 
	C543.668762,391.797455 543.668762,401.845978 543.668762,411.752289 
	C550.718384,411.752289 557.118469,411.752289 563.789062,411.752289 
	C563.789062,391.888611 563.802490,372.411621 563.781372,352.934631 
	C563.774536,346.602631 563.944885,340.254425 563.561218,333.942383 
	C562.929810,323.553558 557.222900,318.185669 546.864868,317.948242 
	C540.201721,317.795502 533.531616,317.828247 526.866455,317.916473 
	C515.225830,318.070557 509.465576,323.717438 509.122040,335.502167 
	C508.908447,342.829437 509.049561,350.167023 509.031281,358.500000 
M67.225960,324.320587 
	C64.206650,322.698303 61.237553,319.796295 58.159336,319.675507 
	C44.922108,319.156158 31.652824,319.453735 18.189995,319.453735 
	C18.189995,350.344421 18.189995,381.050415 18.189995,411.826538 
	C24.901215,411.826538 31.309366,411.826538 38.109859,411.826538 
	C38.109859,400.894958 38.285099,390.267487 38.021210,379.650970 
	C37.919613,375.563599 39.013687,374.046173 43.276184,374.278137 
	C47.301216,374.497162 50.682480,374.419830 50.187496,380.009857 
	C49.850845,383.811737 50.125256,387.667694 50.125492,391.499451 
	C50.125908,398.265839 50.125607,405.032257 50.125607,411.841248 
	C57.207138,411.841248 63.621162,411.841248 70.402733,411.841248 
	C70.402733,400.574799 70.328209,389.602631 70.433418,378.632141 
	C70.487999,372.940308 69.843765,367.640778 64.517685,364.252075 
	C72.788071,355.792969 74.273369,335.786652 67.225960,324.320587 
M121.533989,353.500854 
	C121.533989,372.935211 121.533989,392.369568 121.533989,411.836243 
	C128.601746,411.836243 135.025970,411.836243 141.868469,411.836243 
	C141.868469,409.915649 141.868500,408.288361 141.868469,406.661072 
	C141.868134,383.996338 141.861603,361.331604 141.871536,338.666870 
	C141.874222,332.550110 142.178543,332.275879 148.425735,332.276581 
	C154.443604,332.277252 154.799011,332.617188 154.802582,338.890930 
	C154.815491,361.555664 154.808304,384.220398 154.808716,406.885132 
	C154.808746,408.492310 154.808716,410.099487 154.808716,411.690552 
	C161.863785,411.690552 168.391144,411.690552 175.001480,411.690552 
	C175.001480,403.415985 175.012024,395.584595 174.999359,387.753296 
	C174.971054,370.255554 175.126999,352.754486 174.827515,335.261261 
	C174.626053,323.492310 168.747910,318.058594 156.931961,317.911163 
	C150.767075,317.834229 144.597275,317.799744 138.434875,317.953827 
	C128.244995,318.208618 122.672226,323.291412 121.868088,333.517914 
	C121.372879,339.815643 121.620186,346.171783 121.533989,353.500854 
M373.498108,134.279694 
	C354.460480,134.279694 335.422852,134.279694 315.080444,134.279694 
	C340.635284,164.548859 365.279236,193.739136 390.680664,223.826614 
	C390.680664,193.125565 390.680664,163.944351 390.680664,134.279709 
	C385.078064,134.279709 379.787506,134.279709 373.498108,134.279694 
M654.623169,365.202942 
	C659.678406,350.114563 664.733643,335.026184 670.036255,319.199371 
	C664.729980,319.199371 660.262146,319.410339 655.824768,319.132904 
	C652.249329,318.909363 650.497864,319.976440 649.572693,323.681000 
	C647.274292,332.884430 644.487122,341.966278 641.862305,351.087219 
	C641.454102,352.505676 640.867737,353.872864 640.363770,355.263763 
	C636.272644,344.473999 633.326538,333.902222 630.183105,323.389374 
	C629.726868,321.863892 628.405701,319.509949 627.348022,319.433563 
	C621.823547,319.034668 616.254944,319.247406 610.151917,319.247406 
	C610.956421,321.907349 611.430786,323.640015 612.002258,325.340057 
	C617.414917,341.442413 622.922180,357.513702 628.200195,373.659943 
	C629.212769,376.757355 629.734192,380.134399 629.806641,383.397461 
	C630.015991,392.823578 629.880615,402.257355 629.880615,411.872314 
	C636.856079,411.872314 643.260803,411.872314 649.828857,411.872314 
	C651.210205,396.377472 647.307617,380.599762 654.623169,365.202942 
M255.899109,352.503448 
	C255.899109,347.413055 255.899109,342.322632 255.899109,336.697998 
	C261.201752,336.697998 265.783142,336.697998 270.556335,336.697998 
	C270.556335,330.777313 270.556335,325.418427 270.556335,319.909546 
	C253.829788,319.909546 237.470093,319.909546 221.071503,319.909546 
	C221.071503,325.669495 221.071503,331.056824 221.071503,336.919861 
	C226.030167,336.919861 230.628586,336.919861 235.640579,336.919861 
	C235.640579,362.134521 235.640579,386.866882 235.640579,411.736694 
	C242.592484,411.736694 249.111969,411.736694 255.899094,411.736694 
	C255.899094,392.058136 255.899094,372.779999 255.899109,352.503448 
M440.244293,394.136566 
	C440.244293,369.383148 440.244293,344.629761 440.244293,319.547516 
	C433.094971,319.547516 426.719391,319.547516 420.059448,319.547516 
	C420.059448,350.436371 420.059448,380.984528 420.059448,411.727814 
	C434.010468,411.727814 447.851318,411.727814 461.575439,411.727814 
	C461.575439,406.065491 461.575439,400.823395 461.575439,394.822723 
	C454.455261,394.822723 447.675873,394.822723 440.244293,394.136566 
M354.486389,361.859894 
	C342.694946,361.859894 330.903534,361.859894 318.778564,361.859894 
	C318.778564,367.230652 318.778564,372.092133 318.778564,377.010071 
	C335.179504,377.010071 351.239410,377.010071 367.221741,377.010071 
	C367.221741,371.875519 367.221741,367.112091 367.221741,361.860809 
	C363.081665,361.860809 359.280792,361.860809 354.486389,361.859894 
z"/>
<path fill="#FCFCFC" opacity="1.000000" stroke="none" 
	d="
M293.480713,36.591934 
	C295.300140,37.435661 296.901886,38.045605 298.019440,39.146877 
	C325.785889,66.508667 353.501862,93.921646 381.219299,121.333199 
	C381.681000,121.789803 382.049103,122.341057 383.121704,123.661911 
	C352.954681,123.661911 323.539398,123.661911 294.124115,123.661911 
	C293.915985,124.079712 293.707825,124.497505 293.499695,124.915306 
	C342.669800,183.172287 391.839905,241.429276 441.891418,300.730560 
	C438.504242,300.730560 436.579071,300.730713 434.653931,300.730560 
	C413.496490,300.728882 392.338745,300.669495 371.181946,300.786469 
	C367.938110,300.804413 365.690979,299.985413 363.511810,297.389618 
	C327.524139,254.521027 291.406219,211.761749 255.419815,168.892059 
	C253.947952,167.138687 252.671616,164.546341 252.662964,162.339554 
	C252.502487,121.358078 252.547852,80.375801 252.559067,39.393688 
	C252.559250,38.742092 252.674210,38.090530 252.815887,36.587067 
	C266.247314,36.587067 279.642395,36.587067 293.480713,36.591934 
z"/>
<path fill="#FAFAFA" opacity="1.000000" stroke="none" 
	d="
M236.421692,138.691971 
	C236.421326,140.939407 236.421326,142.732590 236.421326,144.525787 
	C231.212173,139.641907 225.633301,135.941757 225.741364,127.412849 
	C226.207809,90.595650 225.940933,53.769169 225.940964,16.946066 
	C225.940964,15.136818 225.940948,13.327571 225.940948,11.113823 
	C227.628708,10.988154 229.058121,10.790246 230.487717,10.788968 
	C252.648209,10.769165 274.809540,10.689631 296.968048,10.900993 
	C299.290161,10.923143 302.101135,12.155052 303.820099,13.755157 
	C310.767914,20.222534 317.247894,27.192793 324.202332,33.652561 
	C325.924774,35.252487 328.746643,36.342575 331.120483,36.454887 
	C343.753418,37.052593 356.596832,35.983383 369.014069,37.846317 
	C409.336548,43.895824 437.212036,66.702011 450.424988,105.061790 
	C463.728119,143.683472 455.170502,178.618347 427.273956,208.612259 
	C420.175720,216.244156 411.810211,222.199692 401.733948,227.396500 
	C401.621552,225.083984 401.467010,223.377319 401.466278,221.670593 
	C401.453400,191.512314 401.538025,161.353470 401.321838,131.196747 
	C401.303162,128.590439 399.990509,125.327202 398.154114,123.499001 
	C365.091797,90.584396 331.828522,57.871754 298.711395,25.011961 
	C296.137970,22.458534 293.609009,21.345858 289.968719,21.387804 
	C273.975311,21.572096 257.978516,21.460962 241.982971,21.476406 
	C240.350189,21.477982 238.717529,21.609869 236.422073,21.710278 
	C236.422073,60.737312 236.422073,99.487518 236.421692,138.691971 
z"/>
<path fill="#FAFAFA" opacity="1.000000" stroke="none" 
	d="
M316.998230,275.002563 
	C316.998230,283.652893 316.998230,291.803772 316.998230,300.344757 
	C295.501923,300.344757 274.311249,300.344757 252.527756,300.344757 
	C252.527756,298.239899 252.527740,296.285492 252.527725,294.331085 
	C252.527664,264.179749 252.629730,234.027557 252.375107,203.878387 
	C252.348618,200.742645 250.773071,197.226913 248.920517,194.585968 
	C245.624863,189.887817 241.566986,185.724335 236.721344,181.641495 
	C236.721344,221.094498 236.721344,260.547516 236.721344,300.365540 
	C232.926147,300.365540 229.857132,300.365540 226.359985,300.365540 
	C226.359985,250.986481 226.359985,201.536011 226.359985,151.054352 
	C228.026962,152.882309 229.119858,154.002762 230.126511,155.195969 
	C257.086853,187.152710 283.934357,219.205826 311.098694,250.988159 
	C315.385254,256.003448 317.991455,260.888153 317.049896,267.514435 
	C316.725098,269.800323 316.998230,272.171143 316.998230,275.002563 
z"/>
<path fill="#F8F8F8" opacity="1.000000" stroke="none" 
	d="
M509.031372,358.000000 
	C509.049561,350.167023 508.908447,342.829437 509.122040,335.502167 
	C509.465576,323.717438 515.225830,318.070557 526.866455,317.916473 
	C533.531616,317.828247 540.201721,317.795502 546.864868,317.948242 
	C557.222900,318.185669 562.929810,323.553558 563.561218,333.942383 
	C563.944885,340.254425 563.774536,346.602631 563.781372,352.934631 
	C563.802490,372.411621 563.789062,391.888611 563.789062,411.752289 
	C557.118469,411.752289 550.718384,411.752289 543.668762,411.752289 
	C543.668762,401.845978 543.668762,391.797455 543.668762,381.469727 
	C538.629089,381.469727 534.233032,381.469727 529.384888,381.469727 
	C529.384888,391.728973 529.384888,401.678375 529.384888,411.879364 
	C522.507568,411.879364 516.079407,411.879364 509.031281,411.879364 
	C509.031281,394.030975 509.031281,376.265472 509.031372,358.000000 
M529.226501,358.331360 
	C529.226501,360.575775 529.226501,362.820221 529.226501,365.188904 
	C534.360718,365.188904 538.766418,365.188904 543.629333,365.188904 
	C543.629333,354.968201 543.764099,345.045471 543.458130,335.136292 
	C543.420044,333.903290 541.228088,332.255707 539.702515,331.681824 
	C538.100037,331.078979 536.089478,331.651550 534.273560,331.506348 
	C530.630188,331.214905 529.140686,332.825073 529.198059,336.439789 
	C529.308838,343.414368 529.227905,350.391937 529.226501,358.331360 
z"/>
<path fill="#F8F8F8" opacity="1.000000" stroke="none" 
	d="
M67.459229,324.606384 
	C74.273369,335.786652 72.788071,355.792969 64.517685,364.252075 
	C69.843765,367.640778 70.487999,372.940308 70.433418,378.632141 
	C70.328209,389.602631 70.402733,400.574799 70.402733,411.841248 
	C63.621162,411.841248 57.207138,411.841248 50.125607,411.841248 
	C50.125607,405.032257 50.125908,398.265839 50.125492,391.499451 
	C50.125256,387.667694 49.850845,383.811737 50.187496,380.009857 
	C50.682480,374.419830 47.301216,374.497162 43.276184,374.278137 
	C39.013687,374.046173 37.919613,375.563599 38.021210,379.650970 
	C38.285099,390.267487 38.109859,400.894958 38.109859,411.826538 
	C31.309366,411.826538 24.901215,411.826538 18.189995,411.826538 
	C18.189995,381.050415 18.189995,350.344421 18.189995,319.453735 
	C31.652824,319.453735 44.922108,319.156158 58.159336,319.675507 
	C61.237553,319.796295 64.206650,322.698303 67.459229,324.606384 
M38.052586,350.461182 
	C38.052586,353.565399 38.052586,356.669617 38.052586,360.327362 
	C41.128414,360.327362 43.582809,360.200317 46.019032,360.356537 
	C49.873585,360.603729 51.420635,358.969299 51.292419,355.090790 
	C51.100521,349.285645 51.467785,343.454987 51.097572,337.667145 
	C50.991234,336.004700 49.406834,333.364990 48.077236,333.068298 
	C44.994961,332.380402 41.654495,332.849457 38.052586,332.849457 
	C38.052586,338.900482 38.052586,344.187469 38.052586,350.461182 
z"/>
<path fill="#F9F9F9" opacity="1.000000" stroke="none" 
	d="
M121.534042,353.001282 
	C121.620186,346.171783 121.372879,339.815643 121.868088,333.517914 
	C122.672226,323.291412 128.244995,318.208618 138.434875,317.953827 
	C144.597275,317.799744 150.767075,317.834229 156.931961,317.911163 
	C168.747910,318.058594 174.626053,323.492310 174.827515,335.261261 
	C175.126999,352.754486 174.971054,370.255554 174.999359,387.753296 
	C175.012024,395.584595 175.001480,403.415985 175.001480,411.690552 
	C168.391144,411.690552 161.863785,411.690552 154.808716,411.690552 
	C154.808716,410.099487 154.808746,408.492310 154.808716,406.885132 
	C154.808304,384.220398 154.815491,361.555664 154.802582,338.890930 
	C154.799011,332.617188 154.443604,332.277252 148.425735,332.276581 
	C142.178543,332.275879 141.874222,332.550110 141.871536,338.666870 
	C141.861603,361.331604 141.868134,383.996338 141.868469,406.661072 
	C141.868500,408.288361 141.868469,409.915649 141.868469,411.836243 
	C135.025970,411.836243 128.601746,411.836243 121.533989,411.836243 
	C121.533989,392.369568 121.533989,372.935211 121.534042,353.001282 
z"/>
<path fill="#F9F9F9" opacity="1.000000" stroke="none" 
	d="
M373.997528,134.279694 
	C379.787506,134.279709 385.078064,134.279709 390.680664,134.279709 
	C390.680664,163.944351 390.680664,193.125565 390.680664,223.826614 
	C365.279236,193.739136 340.635284,164.548859 315.080444,134.279694 
	C335.422852,134.279694 354.460480,134.279694 373.997528,134.279694 
z"/>
<path fill="#F6F6F6" opacity="1.000000" stroke="none" 
	d="
M654.479858,365.571838 
	C647.307617,380.599762 651.210205,396.377472 649.828857,411.872314 
	C643.260803,411.872314 636.856079,411.872314 629.880615,411.872314 
	C629.880615,402.257355 630.015991,392.823578 629.806641,383.397461 
	C629.734192,380.134399 629.212769,376.757355 628.200195,373.659943 
	C622.922180,357.513702 617.414917,341.442413 612.002258,325.340057 
	C611.430786,323.640015 610.956421,321.907349 610.151917,319.247406 
	C616.254944,319.247406 621.823547,319.034668 627.348022,319.433563 
	C628.405701,319.509949 629.726868,321.863892 630.183105,323.389374 
	C633.326538,333.902222 636.272644,344.473999 640.363770,355.263763 
	C640.867737,353.872864 641.454102,352.505676 641.862305,351.087219 
	C644.487122,341.966278 647.274292,332.884430 649.572693,323.681000 
	C650.497864,319.976440 652.249329,318.909363 655.824768,319.132904 
	C660.262146,319.410339 664.729980,319.199371 670.036255,319.199371 
	C664.733643,335.026184 659.678406,350.114563 654.479858,365.571838 
z"/>
<path fill="#F8F8F8" opacity="1.000000" stroke="none" 
	d="
M255.899109,353.002686 
	C255.899094,372.779999 255.899094,392.058136 255.899094,411.736694 
	C249.111969,411.736694 242.592484,411.736694 235.640579,411.736694 
	C235.640579,386.866882 235.640579,362.134521 235.640579,336.919861 
	C230.628586,336.919861 226.030167,336.919861 221.071503,336.919861 
	C221.071503,331.056824 221.071503,325.669495 221.071503,319.909546 
	C237.470093,319.909546 253.829788,319.909546 270.556335,319.909546 
	C270.556335,325.418427 270.556335,330.777313 270.556335,336.697998 
	C265.783142,336.697998 261.201752,336.697998 255.899109,336.697998 
	C255.899109,342.322632 255.899109,347.413055 255.899109,353.002686 
z"/>
<path fill="#F7F7F7" opacity="1.000000" stroke="none" 
	d="
M440.570374,394.479645 
	C447.675873,394.822723 454.455261,394.822723 461.575439,394.822723 
	C461.575439,400.823395 461.575439,406.065491 461.575439,411.727814 
	C447.851318,411.727814 434.010468,411.727814 420.059448,411.727814 
	C420.059448,380.984528 420.059448,350.436371 420.059448,319.547516 
	C426.719391,319.547516 433.094971,319.547516 440.244293,319.547516 
	C440.244293,344.629761 440.244293,369.383148 440.570374,394.479645 
z"/>
<path fill="#F5F5F5" opacity="1.000000" stroke="none" 
	d="
M354.983154,361.860352 
	C359.280792,361.860809 363.081665,361.860809 367.221741,361.860809 
	C367.221741,367.112091 367.221741,371.875519 367.221741,377.010071 
	C351.239410,377.010071 335.179504,377.010071 318.778564,377.010071 
	C318.778564,372.092133 318.778564,367.230652 318.778564,361.859894 
	C330.903534,361.859894 342.694946,361.859894 354.983154,361.860352 
z"/>
<path fill="#111111" opacity="1.000000" stroke="none" 
	d="
M529.226501,357.849823 
	C529.227905,350.391937 529.308838,343.414368 529.198059,336.439789 
	C529.140686,332.825073 530.630188,331.214905 534.273560,331.506348 
	C536.089478,331.651550 538.100037,331.078979 539.702515,331.681824 
	C541.228088,332.255707 543.420044,333.903290 543.458130,335.136292 
	C543.764099,345.045471 543.629333,354.968201 543.629333,365.188904 
	C538.766418,365.188904 534.360718,365.188904 529.226501,365.188904 
	C529.226501,362.820221 529.226501,360.575775 529.226501,357.849823 
z"/>
<path fill="#0E0E0E" opacity="1.000000" stroke="none" 
	d="
M38.052586,349.967834 
	C38.052586,344.187469 38.052586,338.900482 38.052586,332.849457 
	C41.654495,332.849457 44.994961,332.380402 48.077236,333.068298 
	C49.406834,333.364990 50.991234,336.004700 51.097572,337.667145 
	C51.467785,343.454987 51.100521,349.285645 51.292419,355.090790 
	C51.420635,358.969299 49.873585,360.603729 46.019032,360.356537 
	C43.582809,360.200317 41.128414,360.327362 38.052586,360.327362 
	C38.052586,356.669617 38.052586,353.565399 38.052586,349.967834 
z"/>
</svg>