<svg version="1.1" id="Layer_1" xmlns="http://www.w3.org/2000/svg" xmlns:xlink="http://www.w3.org/1999/xlink" x="0px" y="0px"
	 width="100%" viewBox="0 0 673 422" enable-background="new 0 0 673 422" xml:space="preserve">
<path fill="#000102" opacity="1.000000" stroke="none" 
	d="
M418.000000,423.000000 
	C278.698364,423.000000 139.896698,423.000000 1.047528,423.000000 
	C1.047528,282.397125 1.047528,141.794250 1.047528,1.000000 
	C113.077209,1.000000 225.154526,1.000000 337.231842,1.000000 
	C449.372894,1.000000 561.513977,1.000000 673.827515,1.000000 
	C673.827515,141.666504 673.827515,282.333221 673.827515,423.000000 
	C588.794250,423.000000 503.647125,423.000000 418.000000,423.000000 
M269.126495,184.383011 
	C300.367554,221.449066 331.631683,258.495728 362.799225,295.623505 
	C364.944733,298.179352 367.189972,299.156616 370.483887,299.137848 
	C391.973358,299.015381 413.463898,299.080414 434.954071,299.058472 
	C436.493988,299.056885 438.033752,298.851562 440.894287,298.646149 
	C391.115448,239.657227 342.203003,181.695007 293.290558,123.732796 
	C293.491211,123.254524 293.691864,122.776245 293.892517,122.297974 
	C323.004272,122.297974 352.116028,122.297974 382.419830,122.297974 
	C380.700195,120.172386 379.990997,119.103859 379.098541,118.220512 
	C351.984924,91.383720 324.889893,64.527763 297.635284,37.834755 
	C295.965118,36.199017 293.030670,35.129333 290.651093,35.066788 
	C279.663727,34.778015 268.657043,35.175751 257.672974,34.829552 
	C252.893280,34.678902 251.852158,36.378769 251.873535,40.830971 
	C252.035110,74.481506 252.744537,108.159409 251.616943,141.772873 
	C251.090393,157.469238 253.973297,170.462982 266.059296,180.819763 
	C267.058655,181.676147 267.803467,182.829529 269.126495,184.383011 
M228.350739,136.062637 
	C230.393829,138.373215 232.436935,140.683792 234.480026,142.994354 
	C234.944397,142.854248 235.408783,142.714142 235.873154,142.574036 
	C235.873154,140.516754 235.873062,138.459488 235.873169,136.402206 
	C235.875198,99.414818 235.943726,62.427151 235.791122,25.440401 
	C235.772995,21.049814 237.055878,19.699791 241.462570,19.766489 
	C257.120270,20.003485 272.785461,19.980181 288.444000,19.770603 
	C292.591309,19.715094 295.576202,20.882895 298.556976,23.844131 
	C331.415558,56.487553 364.452393,88.951614 397.266937,121.638939 
	C399.224487,123.588890 400.689209,127.019318 400.711823,129.774536 
	C400.954956,159.429092 400.852936,189.086395 400.880707,218.742920 
	C400.882629,220.776108 401.167358,222.809021 401.383301,225.674545 
	C404.103333,224.186783 406.050751,223.302383 407.808807,222.133255 
	C441.429169,199.775436 458.005554,168.633148 455.140900,128.092896 
	C451.809967,80.953522 415.602966,42.323750 368.806580,36.170799 
	C356.494507,34.551960 343.876373,35.122341 331.395874,35.008652 
	C327.756775,34.975502 325.143738,33.942661 322.639740,31.332100 
	C316.413696,24.841091 310.071320,18.443264 303.454742,12.356919 
	C301.594635,10.645852 298.632812,9.252577 296.159760,9.225448 
	C274.336487,8.986056 252.508835,9.176055 230.684219,9.009515 
	C226.641037,8.978662 225.208054,10.031893 225.224625,14.293447 
	C225.372238,52.279919 225.263077,90.267403 225.419434,128.253799 
	C225.429367,130.669769 227.021042,133.079239 228.350739,136.062637 
M521.460999,316.731995 
	C512.749329,319.101654 508.809113,323.661133 508.698547,333.359741 
	C508.419525,357.835358 508.592041,382.315796 508.465881,406.793701 
	C508.449524,409.967499 509.763123,410.821014 512.647278,410.711792 
	C516.638184,410.560730 520.643860,410.551910 524.633972,410.713043 
	C527.667175,410.835541 528.780823,409.631592 528.706055,406.620850 
	C528.561340,400.796204 528.671997,394.965210 528.674072,389.136871 
	C528.677795,378.661285 528.678772,378.737274 539.268066,379.504822 
	C542.045593,379.706177 543.106995,380.790710 543.044189,383.494507 
	C542.947510,387.655243 543.031372,391.820068 543.031433,395.983154 
	C543.031616,411.100067 543.028870,410.990936 558.377014,410.762146 
	C562.068176,410.707153 563.256836,409.579193 563.213074,405.859619 
	C563.034912,390.707977 563.154480,375.553040 563.137451,360.399292 
	C563.127136,351.240997 563.351318,342.070526 562.956360,332.927734 
	C562.493530,322.214050 556.864685,316.669220 546.258911,316.348602 
	C538.281799,316.107452 530.286255,316.473145 521.460999,316.731995 
M17.263945,393.496460 
	C17.263920,394.328644 17.263874,395.160828 17.263874,395.993011 
	C17.263863,411.055603 17.262518,410.950867 32.631565,410.753906 
	C36.255283,410.707458 37.635353,409.733337 37.540134,405.929321 
	C37.306984,396.614685 37.615582,387.286713 37.399227,377.971252 
	C37.307430,374.018799 38.679897,372.612823 42.606075,372.857544 
	C46.217537,373.082642 49.816383,372.558502 49.644680,377.995209 
	C49.460892,383.814453 49.625206,389.644470 49.626503,395.469788 
	C49.630028,411.318481 49.624611,411.210815 65.465004,410.755005 
	C69.092651,410.650574 69.957359,409.245972 69.888824,405.946411 
	C69.722984,397.960876 69.889877,389.969086 69.828636,381.980530 
	C69.774498,374.918854 71.072891,367.468842 64.107185,362.638672 
	C70.060539,355.930389 70.757927,354.077911 70.803696,345.433929 
	C70.819565,342.438263 70.859421,339.440277 70.770264,336.446869 
	C70.376701,323.233612 64.806427,317.629028 51.682404,317.448547 
	C42.197140,317.318115 32.697906,317.679169 23.226290,317.294464 
	C18.219950,317.091125 17.130409,318.950195 17.171879,323.592987 
	C17.377024,346.559631 17.264553,369.529144 17.263945,393.496460 
M121.016052,381.500000 
	C121.014381,389.496704 121.167580,397.497742 120.943222,405.488220 
	C120.837082,409.268433 121.841637,411.075378 125.948212,410.734772 
	C129.422791,410.446594 132.954666,410.478394 136.434982,410.730408 
	C140.159698,411.000183 141.350662,409.615784 141.294983,405.879272 
	C141.101395,392.887573 141.218628,379.891235 141.220505,366.896667 
	C141.221970,356.734253 141.079575,346.567719 141.364822,336.413208 
	C141.417618,334.533508 142.792557,331.579041 144.260620,331.041473 
	C150.991867,328.576660 154.241226,331.134094 154.245651,338.268585 
	C154.259399,360.425995 154.395142,382.584991 154.144287,404.739532 
	C154.088593,409.657837 155.656036,411.259064 160.378799,410.748169 
	C163.508011,410.409637 166.715576,410.494537 169.864487,410.719788 
	C173.316208,410.966675 174.542389,409.728180 174.488846,406.195282 
	C174.314697,394.702789 174.434158,383.205902 174.430832,371.710724 
	C174.427307,359.549194 174.573441,347.384857 174.359528,335.226929 
	C174.125214,321.910278 168.498001,316.435516 155.317032,316.233368 
	C150.653366,316.161835 145.987656,316.188873 141.323135,316.216614 
	C126.610031,316.304138 121.178947,321.658875 121.057388,336.518677 
	C120.937477,351.178253 121.021515,365.839478 121.016052,381.500000 
M388.950287,132.957718 
	C364.754089,132.957718 340.557892,132.957718 314.743713,132.957718 
	C340.190918,163.108612 364.592010,192.020004 389.920593,222.030350 
	C390.194061,219.067963 390.436798,217.656113 390.438141,216.244034 
	C390.462860,190.082214 390.470245,163.920364 390.430237,137.758591 
	C390.428040,136.305756 389.982819,134.853607 388.950287,132.957718 
M636.900879,347.331573 
	C634.495300,338.839203 632.177002,330.320221 629.604126,321.878876 
	C629.138123,320.350067 627.711792,318.053619 626.585815,317.966766 
	C621.229004,317.553711 615.822876,317.781982 609.712097,317.781982 
	C610.482727,320.418854 610.884460,321.994568 611.401489,323.531494 
	C616.445679,338.526367 621.724670,353.447357 626.450562,368.541534 
	C628.108704,373.837524 628.871887,379.525055 629.236938,385.086700 
	C629.705017,392.217743 629.201843,399.408722 629.498352,406.558044 
	C629.556641,407.964172 631.183594,410.321228 632.365173,410.511353 
	C648.265259,413.069855 649.564697,411.924225 649.564026,396.354614 
	C649.563904,393.856445 649.730347,391.345093 649.533936,388.862488 
	C648.876892,380.556152 650.640076,372.753510 653.446106,364.955688 
	C658.350891,351.325684 662.769653,337.520630 667.367493,323.780670 
	C667.925964,322.111725 668.332825,320.391998 669.095581,317.680328 
	C663.877502,317.680328 659.450928,317.859375 655.046753,317.622864 
	C651.610596,317.438324 649.932190,318.724915 649.079346,322.079132 
	C647.274475,329.177979 645.137512,336.192841 643.108215,343.233948 
	C642.161621,346.518341 641.148621,349.783630 640.165771,353.057617 
	C639.748413,353.053802 639.330994,353.049988 638.913635,353.046173 
	C638.313965,351.396667 637.714294,349.747131 636.900879,347.331573 
M255.236710,395.488312 
	C255.237656,377.160278 255.307281,358.831757 255.181702,340.504578 
	C255.156540,336.831451 255.975632,335.096252 260.140167,335.106689 
	C270.308838,335.132233 270.309326,334.941589 270.274231,324.674622 
	C270.273102,324.341370 270.231689,324.002228 270.278564,323.675781 
	C270.894043,319.388580 269.257568,317.812073 264.755524,317.912598 
	C252.431885,318.187683 240.098083,318.004639 227.768311,318.006195 
	C220.108261,318.007172 220.060989,318.010071 220.106812,325.493011 
	C220.175980,336.786163 218.929535,335.214447 229.534866,335.094971 
	C233.955688,335.045166 235.223236,336.430664 235.182693,340.799103 
	C234.984833,362.124451 235.203979,383.453644 235.008453,404.778992 
	C234.967651,409.231018 236.067780,410.862427 240.821198,410.796265 
	C255.235626,410.595642 255.238388,410.794220 255.236710,395.488312 
M419.200928,397.477844 
	C419.203766,400.307587 419.404205,403.154449 419.161224,405.962921 
	C418.829346,409.799500 420.542664,410.825806 424.118378,410.746552 
	C432.437012,410.562073 440.762665,410.686920 449.085449,410.696136 
	C462.570709,410.711029 462.910583,410.400848 461.119995,396.822235 
	C460.961090,395.616882 459.100525,393.861511 457.871552,393.717651 
	C454.258209,393.294739 450.564941,393.551697 446.902954,393.548767 
	C439.436066,393.542786 439.429871,393.544495 439.428162,385.849884 
	C439.424164,367.872650 439.425873,349.895386 439.426849,331.918152 
	C439.427643,317.546143 439.426544,317.729858 425.008423,317.564758 
	C420.325226,317.511139 419.078552,319.049835 419.113861,323.577148 
	C419.303345,347.878235 419.201935,372.181610 419.200928,397.477844 
M237.925613,181.424515 
	C241.036301,184.877594 243.993607,188.486435 247.299026,191.741776 
	C250.902542,195.290710 251.893112,199.357315 251.861710,204.336578 
	C251.673553,234.158905 251.828384,263.983307 251.702515,293.806274 
	C251.685883,297.744781 252.560577,299.398407 256.926971,299.344879 
	C275.084930,299.122101 293.248535,299.133453 311.406921,299.339172 
	C315.682404,299.387634 316.790955,297.872986 316.704834,293.841522 
	C316.477203,283.183197 316.886658,272.506500 316.464447,261.860016 
	C316.338348,258.680481 315.050751,254.952988 313.030396,252.532211 
	C285.488678,219.531708 257.726562,186.715134 230.007767,153.862473 
	C228.879120,152.524780 227.642471,151.278198 225.486359,148.935410 
	C225.332428,152.229904 225.166519,154.132629 225.165909,156.035431 
	C225.151535,201.520477 225.154465,247.005524 225.157166,292.490570 
	C225.157242,293.823181 224.965454,295.211517 225.279053,296.470245 
	C225.517990,297.429260 226.231003,298.686371 227.052460,299.016724 
	C232.459915,301.191284 236.020996,298.810822 236.023041,293.139221 
	C236.035660,258.150818 236.012161,223.162384 236.072708,188.174088 
	C236.076584,185.933624 236.684708,183.694214 237.925613,181.424515 
M317.908203,371.952026 
	C317.510254,375.553558 319.674500,375.967072 322.552582,375.947327 
	C333.866791,375.869568 345.182709,376.004059 356.496429,375.895752 
	C368.613770,375.779724 366.627441,377.742065 367.001251,365.263214 
	C367.124115,361.161713 365.446686,360.169159 361.701691,360.226318 
	C350.722321,360.393982 339.737701,360.187469 328.756958,360.302246 
	C316.258484,360.432922 318.066223,358.432617 317.908203,371.952026 
z"/>
<path fill="#38B3FB" opacity="1.000000" stroke="none" 
	d="
M268.896545,184.113953 
	C267.803467,182.829529 267.058655,181.676147 266.059296,180.819763 
	C253.973297,170.462982 251.090393,157.469238 251.616943,141.772873 
	C252.744537,108.159409 252.035110,74.481506 251.873535,40.830971 
	C251.852158,36.378769 252.893280,34.678902 257.672974,34.829552 
	C268.657043,35.175751 279.663727,34.778015 290.651093,35.066788 
	C293.030670,35.129333 295.965118,36.199017 297.635284,37.834755 
	C324.889893,64.527763 351.984924,91.383720 379.098541,118.220512 
	C379.990997,119.103859 380.700195,120.172386 382.419830,122.297974 
	C352.116028,122.297974 323.004272,122.297974 293.892517,122.297974 
	C293.691864,122.776245 293.491211,123.254524 293.290558,123.732796 
	C342.203003,181.695007 391.115448,239.657227 440.894287,298.646149 
	C438.033752,298.851562 436.493988,299.056885 434.954071,299.058472 
	C413.463898,299.080414 391.973358,299.015381 370.483887,299.137848 
	C367.189972,299.156616 364.944733,298.179352 362.799225,295.623505 
	C331.631683,258.495728 300.367554,221.449066 268.896545,184.113953 
z"/>
<path fill="#38B0F6" opacity="1.000000" stroke="none" 
	d="
M228.113800,135.777191 
	C227.021042,133.079239 225.429367,130.669769 225.419434,128.253799 
	C225.263077,90.267403 225.372238,52.279919 225.224625,14.293447 
	C225.208054,10.031893 226.641037,8.978662 230.684219,9.009515 
	C252.508835,9.176055 274.336487,8.986056 296.159760,9.225448 
	C298.632812,9.252577 301.594635,10.645852 303.454742,12.356919 
	C310.071320,18.443264 316.413696,24.841091 322.639740,31.332100 
	C325.143738,33.942661 327.756775,34.975502 331.395874,35.008652 
	C343.876373,35.122341 356.494507,34.551960 368.806580,36.170799 
	C415.602966,42.323750 451.809967,80.953522 455.140900,128.092896 
	C458.005554,168.633148 441.429169,199.775436 407.808807,222.133255 
	C406.050751,223.302383 404.103333,224.186783 401.383301,225.674545 
	C401.167358,222.809021 400.882629,220.776108 400.880707,218.742920 
	C400.852936,189.086395 400.954956,159.429092 400.711823,129.774536 
	C400.689209,127.019318 399.224487,123.588890 397.266937,121.638939 
	C364.452393,88.951614 331.415558,56.487553 298.556976,23.844131 
	C295.576202,20.882895 292.591309,19.715094 288.444000,19.770603 
	C272.785461,19.980181 257.120270,20.003485 241.462570,19.766489 
	C237.055878,19.699791 235.772995,21.049814 235.791122,25.440401 
	C235.943726,62.427151 235.875198,99.414818 235.873169,136.402206 
	C235.873062,138.459488 235.873154,140.516754 235.873154,142.574036 
	C235.408783,142.714142 234.944397,142.854248 234.480026,142.994354 
	C232.436935,140.683792 230.393829,138.373215 228.113800,135.777191 
z"/>
<path fill="#39AEF3" opacity="1.000000" stroke="none" 
	d="
M521.880005,316.650330 
	C530.286255,316.473145 538.281799,316.107452 546.258911,316.348602 
	C556.864685,316.669220 562.493530,322.214050 562.956360,332.927734 
	C563.351318,342.070526 563.127136,351.240997 563.137451,360.399292 
	C563.154480,375.553040 563.034912,390.707977 563.213074,405.859619 
	C563.256836,409.579193 562.068176,410.707153 558.377014,410.762146 
	C543.028870,410.990936 543.031616,411.100067 543.031433,395.983154 
	C543.031372,391.820068 542.947510,387.655243 543.044189,383.494507 
	C543.106995,380.790710 542.045593,379.706177 539.268066,379.504822 
	C528.678772,378.737274 528.677795,378.661285 528.674072,389.136871 
	C528.671997,394.965210 528.561340,400.796204 528.706055,406.620850 
	C528.780823,409.631592 527.667175,410.835541 524.633972,410.713043 
	C520.643860,410.551910 516.638184,410.560730 512.647278,410.711792 
	C509.763123,410.821014 508.449524,409.967499 508.465881,406.793701 
	C508.592041,382.315796 508.419525,357.835358 508.698547,333.359741 
	C508.809113,323.661133 512.749329,319.101654 521.880005,316.650330 
M540.890747,330.273468 
	C539.246155,330.138611 537.602539,329.902618 535.956787,329.886536 
	C529.018799,329.818695 528.632629,330.211609 528.608093,337.142883 
	C528.588196,342.782013 528.521240,348.422699 528.621582,354.060120 
	C528.816345,365.010132 526.516663,363.797760 538.775635,363.967987 
	C541.948669,364.012054 543.216187,362.951141 543.148254,359.662537 
	C542.980347,351.538910 543.162048,343.408325 543.023804,335.283600 
	C542.997742,333.752411 542.141113,332.235413 540.890747,330.273468 
z"/>
<path fill="#38ADF1" opacity="1.000000" stroke="none" 
	d="
M17.264004,392.997040 
	C17.264553,369.529144 17.377024,346.559631 17.171879,323.592987 
	C17.130409,318.950195 18.219950,317.091125 23.226290,317.294464 
	C32.697906,317.679169 42.197140,317.318115 51.682404,317.448547 
	C64.806427,317.629028 70.376701,323.233612 70.770264,336.446869 
	C70.859421,339.440277 70.819565,342.438263 70.803696,345.433929 
	C70.757927,354.077911 70.060539,355.930389 64.107185,362.638672 
	C71.072891,367.468842 69.774498,374.918854 69.828636,381.980530 
	C69.889877,389.969086 69.722984,397.960876 69.888824,405.946411 
	C69.957359,409.245972 69.092651,410.650574 65.465004,410.755005 
	C49.624611,411.210815 49.630028,411.318481 49.626503,395.469788 
	C49.625206,389.644470 49.460892,383.814453 49.644680,377.995209 
	C49.816383,372.558502 46.217537,373.082642 42.606075,372.857544 
	C38.679897,372.612823 37.307430,374.018799 37.399227,377.971252 
	C37.615582,387.286713 37.306984,396.614685 37.540134,405.929321 
	C37.635353,409.733337 36.255283,410.707458 32.631565,410.753906 
	C17.262518,410.950867 17.263863,411.055603 17.263874,395.993011 
	C17.263874,395.160828 17.263920,394.328644 17.264004,392.997040 
M40.346855,331.036621 
	C37.083321,330.741211 37.014038,332.979248 37.011929,335.255157 
	C37.006241,341.390656 37.182201,347.532867 36.946049,353.659302 
	C36.792839,357.633881 37.983181,359.338959 42.256664,359.252533 
	C49.759949,359.100861 50.951431,358.668091 51.063633,353.727631 
	C51.195374,347.926788 51.081497,342.120667 51.099121,336.316864 
	C51.112198,332.012390 49.264381,330.096069 44.125362,331.244598 
	C43.127308,331.282593 42.129253,331.320587 40.346855,331.036621 
z"/>
<path fill="#39ADF2" opacity="1.000000" stroke="none" 
	d="
M121.016060,381.000000 
	C121.021515,365.839478 120.937477,351.178253 121.057388,336.518677 
	C121.178947,321.658875 126.610031,316.304138 141.323135,316.216614 
	C145.987656,316.188873 150.653366,316.161835 155.317032,316.233368 
	C168.498001,316.435516 174.125214,321.910278 174.359528,335.226929 
	C174.573441,347.384857 174.427307,359.549194 174.430832,371.710724 
	C174.434158,383.205902 174.314697,394.702789 174.488846,406.195282 
	C174.542389,409.728180 173.316208,410.966675 169.864487,410.719788 
	C166.715576,410.494537 163.508011,410.409637 160.378799,410.748169 
	C155.656036,411.259064 154.088593,409.657837 154.144287,404.739532 
	C154.395142,382.584991 154.259399,360.425995 154.245651,338.268585 
	C154.241226,331.134094 150.991867,328.576660 144.260620,331.041473 
	C142.792557,331.579041 141.417618,334.533508 141.364822,336.413208 
	C141.079575,346.567719 141.221970,356.734253 141.220505,366.896667 
	C141.218628,379.891235 141.101395,392.887573 141.294983,405.879272 
	C141.350662,409.615784 140.159698,411.000183 136.434982,410.730408 
	C132.954666,410.478394 129.422791,410.446594 125.948212,410.734772 
	C121.841637,411.075378 120.837082,409.268433 120.943222,405.488220 
	C121.167580,397.497742 121.014381,389.496704 121.016060,381.000000 
z"/>
<path fill="#39B1F8" opacity="1.000000" stroke="none" 
	d="
M389.347046,133.179428 
	C389.982819,134.853607 390.428040,136.305756 390.430237,137.758591 
	C390.470245,163.920364 390.462860,190.082214 390.438141,216.244034 
	C390.436798,217.656113 390.194061,219.067963 389.920593,222.030350 
	C364.592010,192.020004 340.190918,163.108612 314.743713,132.957718 
	C340.557892,132.957718 364.754089,132.957718 389.347046,133.179428 
z"/>
<path fill="#38ADF1" opacity="1.000000" stroke="none" 
	d="
M637.007751,347.714600 
	C637.714294,349.747131 638.313965,351.396667 638.913635,353.046173 
	C639.330994,353.049988 639.748413,353.053802 640.165771,353.057617 
	C641.148621,349.783630 642.161621,346.518341 643.108215,343.233948 
	C645.137512,336.192841 647.274475,329.177979 649.079346,322.079132 
	C649.932190,318.724915 651.610596,317.438324 655.046753,317.622864 
	C659.450928,317.859375 663.877502,317.680328 669.095581,317.680328 
	C668.332825,320.391998 667.925964,322.111725 667.367493,323.780670 
	C662.769653,337.520630 658.350891,351.325684 653.446106,364.955688 
	C650.640076,372.753510 648.876892,380.556152 649.533936,388.862488 
	C649.730347,391.345093 649.563904,393.856445 649.564026,396.354614 
	C649.564697,411.924225 648.265259,413.069855 632.365173,410.511353 
	C631.183594,410.321228 629.556641,407.964172 629.498352,406.558044 
	C629.201843,399.408722 629.705017,392.217743 629.236938,385.086700 
	C628.871887,379.525055 628.108704,373.837524 626.450562,368.541534 
	C621.724670,353.447357 616.445679,338.526367 611.401489,323.531494 
	C610.884460,321.994568 610.482727,320.418854 609.712097,317.781982 
	C615.822876,317.781982 621.229004,317.553711 626.585815,317.966766 
	C627.711792,318.053619 629.138123,320.350067 629.604126,321.878876 
	C632.177002,330.320221 634.495300,338.839203 637.007751,347.714600 
z"/>
<path fill="#39ADF1" opacity="1.000000" stroke="none" 
	d="
M255.236481,395.984558 
	C255.238388,410.794220 255.235626,410.595642 240.821198,410.796265 
	C236.067780,410.862427 234.967651,409.231018 235.008453,404.778992 
	C235.203979,383.453644 234.984833,362.124451 235.182693,340.799103 
	C235.223236,336.430664 233.955688,335.045166 229.534866,335.094971 
	C218.929535,335.214447 220.175980,336.786163 220.106812,325.493011 
	C220.060989,318.010071 220.108261,318.007172 227.768311,318.006195 
	C240.098083,318.004639 252.431885,318.187683 264.755524,317.912598 
	C269.257568,317.812073 270.894043,319.388580 270.278564,323.675781 
	C270.231689,324.002228 270.273102,324.341370 270.274231,324.674622 
	C270.309326,334.941589 270.308838,335.132233 260.140167,335.106689 
	C255.975632,335.096252 255.156540,336.831451 255.181702,340.504578 
	C255.307281,358.831757 255.237656,377.160278 255.236481,395.984558 
z"/>
<path fill="#39ADF1" opacity="1.000000" stroke="none" 
	d="
M419.200989,396.981018 
	C419.201935,372.181610 419.303345,347.878235 419.113861,323.577148 
	C419.078552,319.049835 420.325226,317.511139 425.008423,317.564758 
	C439.426544,317.729858 439.427643,317.546143 439.426849,331.918152 
	C439.425873,349.895386 439.424164,367.872650 439.428162,385.849884 
	C439.429871,393.544495 439.436066,393.542786 446.902954,393.548767 
	C450.564941,393.551697 454.258209,393.294739 457.871552,393.717651 
	C459.100525,393.861511 460.961090,395.616882 461.119995,396.822235 
	C462.910583,410.400848 462.570709,410.711029 449.085449,410.696136 
	C440.762665,410.686920 432.437012,410.562073 424.118378,410.746552 
	C420.542664,410.825806 418.829346,409.799500 419.161224,405.962921 
	C419.404205,403.154449 419.203766,400.307587 419.200989,396.981018 
z"/>
<path fill="#3B9CD5" opacity="1.000000" stroke="none" 
	d="
M237.468689,181.439423 
	C236.684708,183.694214 236.076584,185.933624 236.072708,188.174088 
	C236.012161,223.162384 236.035660,258.150818 236.023041,293.139221 
	C236.020996,298.810822 232.459915,301.191284 227.052460,299.016724 
	C226.231003,298.686371 225.517990,297.429260 225.279053,296.470245 
	C224.965454,295.211517 225.157242,293.823181 225.157166,292.490570 
	C225.154465,247.005524 225.151535,201.520477 225.165909,156.035431 
	C225.166519,154.132629 225.332428,152.229904 225.486359,148.935410 
	C227.642471,151.278198 228.879120,152.524780 230.007767,153.862473 
	C257.726562,186.715134 285.488678,219.531708 313.030396,252.532211 
	C315.050751,254.952988 316.338348,258.680481 316.464447,261.860016 
	C316.886658,272.506500 316.477203,283.183197 316.704834,293.841522 
	C316.790955,297.872986 315.682404,299.387634 311.406921,299.339172 
	C293.248535,299.133453 275.084930,299.122101 256.926971,299.344879 
	C252.560577,299.398407 251.685883,297.744781 251.702515,293.806274 
	C251.828384,263.983307 251.673553,234.158905 251.861710,204.336578 
	C251.893112,199.357315 250.902542,195.290710 247.299026,191.741776 
	C243.993607,188.486435 241.036301,184.877594 237.468689,181.439423 
M227.902100,195.500000 
	C227.902237,226.830551 227.901596,258.161102 227.904892,289.491638 
	C227.905045,290.991180 227.598389,292.608643 228.063034,293.954163 
	C228.458038,295.098083 229.763138,296.699738 230.661407,296.697052 
	C231.719757,296.693939 233.280060,295.376312 233.704758,294.274719 
	C234.270767,292.806549 234.005096,290.997375 234.005676,289.334625 
	C234.017746,254.004425 233.988266,218.674133 234.098099,183.344269 
	C234.104019,181.440857 235.258774,179.541016 235.878754,177.639511 
	C237.643768,178.739410 239.722855,179.541351 241.108170,181.001480 
	C243.960571,184.007889 246.217773,187.588898 249.132233,190.524033 
	C252.949966,194.368866 254.063919,198.724121 254.026871,204.059814 
	C253.825546,233.055832 254.006714,262.054382 253.853043,291.050995 
	C253.829361,295.520203 255.055374,297.223114 259.771301,297.152344 
	C275.932861,296.909882 292.102722,296.909454 308.264130,297.158875 
	C313.012512,297.232147 314.307587,295.478363 314.160828,291.027863 
	C313.891846,282.870789 313.573669,274.656891 314.236359,266.545135 
	C314.817078,259.436340 312.178558,254.290314 307.770599,249.125412 
	C284.027893,221.305481 260.501740,193.300812 236.874756,165.381927 
	C234.506149,162.583084 231.962219,159.932617 229.499634,157.213287 
	C228.966965,157.410172 228.434280,157.607040 227.901611,157.803925 
	C227.901611,170.035950 227.901611,182.267975 227.902100,195.500000 
z"/>
<path fill="#38A7E8" opacity="1.000000" stroke="none" 
	d="
M317.905670,371.518250 
	C318.066223,358.432617 316.258484,360.432922 328.756958,360.302246 
	C339.737701,360.187469 350.722321,360.393982 361.701691,360.226318 
	C365.446686,360.169159 367.124115,361.161713 367.001251,365.263214 
	C366.627441,377.742065 368.613770,375.779724 356.496429,375.895752 
	C345.182709,376.004059 333.866791,375.869568 322.552582,375.947327 
	C319.674500,375.967072 317.510254,375.553558 317.905670,371.518250 
z"/>
<path fill="#010A12" opacity="1.000000" stroke="none" 
	d="
M541.279236,330.492676 
	C542.141113,332.235413 542.997742,333.752411 543.023804,335.283600 
	C543.162048,343.408325 542.980347,351.538910 543.148254,359.662537 
	C543.216187,362.951141 541.948669,364.012054 538.775635,363.967987 
	C526.516663,363.797760 528.816345,365.010132 528.621582,354.060120 
	C528.521240,348.422699 528.588196,342.782013 528.608093,337.142883 
	C528.632629,330.211609 529.018799,329.818695 535.956787,329.886536 
	C537.602539,329.902618 539.246155,330.138611 541.279236,330.492676 
z"/>
<path fill="#000205" opacity="1.000000" stroke="none" 
	d="
M41.131195,331.358582 
	C42.129253,331.320587 43.127308,331.282593 44.683720,331.596252 
	C46.552181,333.570862 48.835941,335.106018 48.991825,336.833160 
	C49.480953,342.252777 49.106380,347.745636 49.188461,353.208313 
	C49.246548,357.073975 46.763393,357.254608 43.881744,357.309204 
	C40.816822,357.367340 38.711967,356.744629 38.808746,353.005493 
	C38.945789,347.710693 38.636166,342.397888 38.941193,337.117218 
	C39.054127,335.162048 40.366066,333.276093 41.131195,331.358582 
z"/>
<path fill="#0C3551" opacity="1.000000" stroke="none" 
	d="
M40.739021,331.197601 
	C40.366066,333.276093 39.054127,335.162048 38.941193,337.117218 
	C38.636166,342.397888 38.945789,347.710693 38.808746,353.005493 
	C38.711967,356.744629 40.816822,357.367340 43.881744,357.309204 
	C46.763393,357.254608 49.246548,357.073975 49.188461,353.208313 
	C49.106380,347.745636 49.480953,342.252777 48.991825,336.833160 
	C48.835941,335.106018 46.552181,333.570862 45.054703,331.654053 
	C49.264381,330.096069 51.112198,332.012390 51.099121,336.316864 
	C51.081497,342.120667 51.195374,347.926788 51.063633,353.727631 
	C50.951431,358.668091 49.759949,359.100861 42.256664,359.252533 
	C37.983181,359.338959 36.792839,357.633881 36.946049,353.659302 
	C37.182201,347.532867 37.006241,341.390656 37.011929,335.255157 
	C37.014038,332.979248 37.083321,330.741211 40.739021,331.197601 
z"/>
<path fill="#37B5FF" opacity="1.000000" stroke="none" 
	d="
M227.901855,195.000000 
	C227.901611,182.267975 227.901611,170.035950 227.901611,157.803925 
	C228.434280,157.607040 228.966965,157.410172 229.499634,157.213287 
	C231.962219,159.932617 234.506149,162.583084 236.874756,165.381927 
	C260.501740,193.300812 284.027893,221.305481 307.770599,249.125412 
	C312.178558,254.290314 314.817078,259.436340 314.236359,266.545135 
	C313.573669,274.656891 313.891846,282.870789 314.160828,291.027863 
	C314.307587,295.478363 313.012512,297.232147 308.264130,297.158875 
	C292.102722,296.909454 275.932861,296.909882 259.771301,297.152344 
	C255.055374,297.223114 253.829361,295.520203 253.853043,291.050995 
	C254.006714,262.054382 253.825546,233.055832 254.026871,204.059814 
	C254.063919,198.724121 252.949966,194.368866 249.132233,190.524033 
	C246.217773,187.588898 243.960571,184.007889 241.108170,181.001480 
	C239.722855,179.541351 237.643768,178.739410 235.878754,177.639511 
	C235.258774,179.541016 234.104019,181.440857 234.098099,183.344269 
	C233.988266,218.674133 234.017746,254.004425 234.005676,289.334625 
	C234.005096,290.997375 234.270767,292.806549 233.704758,294.274719 
	C233.280060,295.376312 231.719757,296.693939 230.661407,296.697052 
	C229.763138,296.699738 228.458038,295.098083 228.063034,293.954163 
	C227.598389,292.608643 227.905045,290.991180 227.904892,289.491638 
	C227.901596,258.161102 227.902237,226.830551 227.901855,195.000000 
z"/>
</svg>