<svg version="1.1" id="Layer_1" xmlns="http://www.w3.org/2000/svg" xmlns:xlink="http://www.w3.org/1999/xlink" x="0px" y="0px"
	 width="100%" viewBox="0 0 695 415" enable-background="new 0 0 695 415" xml:space="preserve">
<path fill="#010000" opacity="1.000000" stroke="none" 
	d="
M450.000000,416.000000 
	C300.033661,416.000000 150.567337,416.000000 1.050498,416.000000 
	C1.050498,277.731506 1.050498,139.462967 1.050498,1.097224 
	C232.549652,1.097224 464.099335,1.097224 695.824524,1.097224 
	C695.824524,139.333160 695.824524,277.666565 695.824524,416.000000 
	C614.129700,416.000000 532.314819,416.000000 450.000000,416.000000 
M400.191406,223.296204 
	C371.402191,189.178787 342.612976,155.061371 313.823761,120.943947 
	C314.151154,120.214890 314.478516,119.485840 314.805878,118.756790 
	C341.164215,118.756790 367.522522,118.756790 393.880859,118.756790 
	C393.984009,118.215439 394.087189,117.674088 394.190369,117.132736 
	C393.290619,116.012657 392.490204,114.792358 391.476532,113.787170 
	C366.991089,89.507187 342.533844,65.198067 317.879028,41.091045 
	C315.972931,39.227310 312.682556,37.981476 309.979218,37.874588 
	C300.332581,37.493172 290.659302,37.851021 281.000793,37.673374 
	C276.581879,37.592098 274.728638,39.155888 274.742004,43.752926 
	C274.848206,80.234314 274.744080,116.716415 274.918335,153.197281 
	C274.930695,155.782211 276.008636,158.889130 277.657806,160.861359 
	C310.673920,200.345383 343.859985,239.687302 376.960510,279.100891 
	C379.272980,281.854401 381.842896,283.213287 385.536285,283.189362 
	C404.692566,283.065125 423.850098,283.148499 443.007019,283.096191 
	C444.689972,283.091614 446.371704,282.629639 449.515411,282.163330 
	C432.633087,262.019562 416.637207,242.933533 400.191406,223.296204 
M252.731934,131.596344 
	C254.567749,133.615646 256.403564,135.634949 258.239380,137.654251 
	C258.655762,137.493149 259.072144,137.332062 259.488495,137.170975 
	C259.597595,135.104324 259.800293,133.037750 259.801727,130.971039 
	C259.824982,97.641121 259.805481,64.311165 259.840607,30.981256 
	C259.847595,24.344130 260.340881,23.868515 266.968384,23.847414 
	C280.966827,23.802849 294.972168,23.607210 308.958832,24.016327 
	C312.066376,24.107224 315.844421,25.688704 318.069153,27.859438 
	C348.245697,57.303780 378.154236,87.022606 408.278381,116.521042 
	C411.807739,119.977089 413.119385,123.581421 413.089355,128.421616 
	C412.923828,155.084503 412.995850,181.749069 413.078156,208.412766 
	C413.083374,210.105072 413.863037,211.794983 414.282440,213.486008 
	C415.933014,212.894897 417.750488,212.574066 419.209656,211.673019 
	C452.175995,191.316025 469.079376,153.990189 462.567474,116.096947 
	C456.035004,78.083755 427.840637,47.722939 390.187286,40.211937 
	C376.952393,37.571877 363.043488,38.200588 349.429871,37.638893 
	C345.505829,37.476986 342.428772,36.479645 339.677185,33.615814 
	C334.367767,28.089838 329.013092,22.572239 323.262665,17.523258 
	C321.102112,15.626253 317.804565,14.059800 314.999481,14.016398 
	C295.506134,13.714784 276.005188,13.944955 256.508514,13.784304 
	C251.873383,13.746111 249.934799,15.226954 249.952957,20.088142 
	C250.082550,54.750763 249.982391,89.414261 250.122391,124.076790 
	C250.131744,126.394333 251.509918,128.706345 252.731934,131.596344 
M259.829681,255.500000 
	C259.874390,228.402115 259.737000,201.300797 260.803192,174.088028 
	C267.851624,180.829437 275.202423,186.208969 274.873047,197.555176 
	C274.109650,223.853683 274.710388,250.190033 274.576904,276.510132 
	C274.552124,281.395691 276.195221,283.321686 281.250824,283.248108 
	C297.073242,283.017761 312.901764,283.079712 328.726440,283.208221 
	C332.986603,283.242798 334.776733,281.605652 334.716400,277.329376 
	C334.582458,267.835785 334.965912,258.324432 334.498749,248.851883 
	C334.340851,245.650574 332.984406,241.936050 330.940399,239.487122 
	C305.857025,209.434830 280.548462,179.570404 255.275421,149.676620 
	C254.179733,148.380630 252.864273,147.270462 250.557907,144.995178 
	C250.299271,148.766678 250.016891,150.986710 250.014526,153.207031 
	C249.983978,181.860031 249.991074,210.513077 249.993607,239.166107 
	C249.994736,251.826706 250.017761,264.487305 250.006897,277.147919 
	C250.004089,280.417419 250.386429,283.082611 254.729767,283.151398 
	C259.290588,283.223602 259.859528,280.533325 259.833801,276.990082 
	C259.784210,270.160400 259.825592,263.330078 259.829681,255.500000 
M523.241760,345.499969 
	C523.243469,358.820282 523.221497,372.140625 523.256104,385.460846 
	C523.275574,392.936859 523.502502,393.131805 530.733154,393.171295 
	C533.230652,393.184937 535.746460,392.974274 538.221802,393.207336 
	C542.828674,393.641052 544.508667,391.582855 544.410278,387.130707 
	C544.255737,380.141632 544.475098,373.145081 544.401062,366.153137 
	C544.361023,362.376648 546.006531,360.589081 549.800720,360.762939 
	C551.295959,360.831451 552.797852,360.816711 554.294739,360.773590 
	C557.911072,360.669373 559.381653,362.526367 559.338501,366.002472 
	C559.282776,370.497009 559.344360,374.993042 559.358826,379.488434 
	C559.409546,395.239136 558.218750,393.022583 572.945312,393.151672 
	C580.105591,393.214447 580.418335,392.854858 580.436646,385.430725 
	C580.475708,369.613007 580.492371,353.794983 580.436401,337.977386 
	C580.404541,328.989563 580.598816,319.975830 579.987488,311.021820 
	C579.294556,300.871338 573.740234,295.664185 563.575317,295.089630 
	C556.935059,294.714264 550.258972,294.803406 543.602783,294.915009 
	C529.373108,295.153595 523.688293,300.728088 523.337524,315.030334 
	C523.096619,324.848419 523.259705,334.676392 523.241760,345.499969 
M30.748064,381.456177 
	C30.761726,373.960907 30.599319,366.458069 30.919943,358.975952 
	C30.994738,357.230530 32.325714,354.568542 33.736992,354.019135 
	C39.777073,351.667572 43.433838,354.353851 43.492554,360.761261 
	C43.574963,369.755005 43.580257,378.750061 43.533867,387.744110 
	C43.514996,391.402954 44.873898,393.366974 48.836277,393.182098 
	C52.659149,393.003723 56.551105,393.487701 60.299473,392.925507 
	C61.841877,392.694214 64.262268,390.509125 64.286087,389.177002 
	C64.506302,376.863251 66.052612,364.169617 63.559494,352.357605 
	C61.983707,344.891785 61.593945,339.464111 64.547432,332.424988 
	C66.706726,327.278717 65.639626,320.608032 65.364502,314.646667 
	C64.798553,302.383789 59.091682,296.923920 46.719448,296.632751 
	C36.897316,296.401581 27.066151,296.511932 17.239208,296.541504 
	C10.231625,296.562622 9.854349,296.934875 9.847265,303.891113 
	C9.820465,330.208282 9.830206,356.525482 9.832460,382.842651 
	C9.833345,393.168518 9.840768,393.168518 20.208714,393.170685 
	C30.731295,393.172882 30.731295,393.172882 30.748064,381.456177 
M152.952942,322.554504 
	C152.952332,341.385010 152.860733,360.216125 152.978775,379.045868 
	C153.080414,395.256897 150.864822,392.862640 167.518845,393.240906 
	C172.312637,393.349792 173.985565,391.527252 173.957733,386.825653 
	C173.816666,362.996826 173.894409,339.166779 173.838623,315.337250 
	C173.833191,313.017151 173.638931,310.658386 173.188675,308.385620 
	C171.676758,300.753693 167.121140,295.944061 159.393021,295.409760 
	C150.613068,294.802704 141.726776,294.779602 132.948044,295.387909 
	C124.816658,295.951324 120.029655,301.065460 118.770294,309.152802 
	C118.286102,312.262146 118.232582,315.460266 118.224876,318.618530 
	C118.176071,338.615387 118.141068,358.612579 118.208450,378.609314 
	C118.265083,395.417908 116.305473,392.914825 133.400513,393.214264 
	C137.830261,393.291840 139.227203,391.327576 139.157440,387.182587 
	C139.008820,378.353210 139.121140,369.519440 139.129150,360.687469 
	C139.142456,346.023132 139.019775,331.355988 139.322113,316.697571 
	C139.367126,314.515381 140.905884,311.152710 142.629501,310.432556 
	C149.052582,307.748871 152.825607,310.647736 152.941986,317.579468 
	C152.964371,318.912262 152.950638,320.245636 152.952942,322.554504 
M354.501038,128.426193 
	C348.113861,128.426193 341.726654,128.426193 335.339478,128.426193 
	C335.060272,129.101837 334.781067,129.777481 334.501831,130.453125 
	C356.709442,156.825363 378.917053,183.197601 401.124664,209.569839 
	C401.681854,209.279434 402.239014,208.989014 402.796204,208.698593 
	C402.947876,206.949966 403.229218,205.201508 403.231598,203.452652 
	C403.262451,180.791580 403.276581,158.130432 403.240387,135.469376 
	C403.230011,128.972000 402.698975,128.470016 395.990631,128.446350 
	C382.494110,128.398697 368.997314,128.429276 354.501038,128.426193 
M672.146729,354.021454 
	C672.567505,352.756866 672.984436,351.490997 673.409790,350.227966 
	C678.780029,334.282257 684.114502,318.324341 689.551270,302.401337 
	C690.756104,298.872742 690.682922,296.457245 686.062866,296.508911 
	C683.065002,296.542419 680.060913,296.602173 677.068970,296.457214 
	C673.320496,296.275665 671.262146,297.854095 670.276489,301.547943 
	C668.000549,310.077118 665.483704,318.542969 662.983215,327.010498 
	C662.455444,328.797729 661.579346,330.482117 660.863770,332.213867 
	C658.944702,330.643311 658.127502,329.092163 657.638733,327.443634 
	C655.839355,321.374725 654.149963,315.273254 652.417175,309.184570 
	C648.552856,295.605377 648.552368,295.605560 634.463013,296.493256 
	C634.296814,296.503723 634.130188,296.508911 633.963623,296.510437 
	C630.606995,296.540771 629.446350,298.035736 630.581116,301.311646 
	C632.816528,307.765320 634.784729,314.316498 637.177551,320.709808 
	C645.262512,342.311676 652.758301,363.991821 649.892212,387.675140 
	C649.396912,391.767792 651.560852,393.482574 655.546692,393.172180 
	C656.374146,393.107758 657.211853,393.187500 658.044678,393.178162 
	C671.745361,393.024780 670.617554,394.875641 670.830872,380.683105 
	C670.960510,372.056885 671.522156,363.437164 672.146729,354.021454 
M258.666656,341.500061 
	C258.673370,334.843292 258.850067,328.180939 258.629944,321.531677 
	C258.470215,316.706604 260.173370,314.642456 265.251282,314.673370 
	C274.438263,314.729309 274.439819,314.495270 274.402130,305.074554 
	C274.399475,304.408905 274.338287,303.738220 274.397919,303.078369 
	C274.830536,298.293335 272.564026,296.652100 267.908081,296.710785 
	C254.596924,296.878540 241.281479,296.809967 227.968933,296.694000 
	C223.845703,296.658081 221.611359,298.076416 222.010391,302.505219 
	C222.129318,303.825165 222.007675,305.166107 222.008911,306.497437 
	C222.016296,314.475067 222.119644,314.579376 230.079437,314.742523 
	C237.167282,314.887787 237.624283,315.301147 237.636978,322.563538 
	C237.669815,341.368896 237.593842,360.174591 237.663498,378.979736 
	C237.724792,395.527740 236.021912,392.987030 252.139786,393.151794 
	C257.991760,393.211609 258.626404,392.492462 258.646393,386.434814 
	C258.694672,371.790039 258.664398,357.145020 258.666656,341.500061 
M474.087311,384.505035 
	C474.029144,375.472443 474.029144,375.472687 464.875366,375.448212 
	C462.877930,375.442871 460.880127,375.458466 458.883148,375.424194 
	C452.053589,375.306915 451.439056,374.765350 451.422852,367.981171 
	C451.377563,349.005524 451.523010,330.028717 451.363647,311.054291 
	C451.225647,294.620453 453.888794,296.641296 436.240936,296.440735 
	C431.990051,296.392426 430.284912,298.132660 430.297150,302.393005 
	C430.378632,330.689819 430.364868,358.987061 430.298065,387.283966 
	C430.288239,391.432495 431.791016,393.319336 436.182373,393.234100 
	C446.165741,393.040344 456.155609,393.200409 466.142792,393.178223 
	C473.891144,393.161011 473.931366,393.095886 474.087311,384.505035 
M331.746948,357.565094 
	C344.222198,357.557037 356.699097,357.429108 369.171844,357.601807 
	C373.943298,357.667877 375.947632,355.749847 375.513855,351.067322 
	C375.406860,349.912750 375.410004,348.732849 375.508545,347.577057 
	C375.919312,342.758606 373.603088,341.167877 368.969482,341.233765 
	C356.330475,341.413483 343.687042,341.260376 331.045563,341.300049 
	C324.986847,341.319061 324.405029,341.942261 324.276672,347.809601 
	C324.080994,356.750763 324.341309,357.137939 331.746948,357.565094 
z"/>
<path fill="#87270B" opacity="1.000000" stroke="none" 
	d="
M400.416382,223.571854 
	C416.637207,242.933533 432.633087,262.019562 449.515411,282.163330 
	C446.371704,282.629639 444.689972,283.091614 443.007019,283.096191 
	C423.850098,283.148499 404.692566,283.065125 385.536285,283.189362 
	C381.842896,283.213287 379.272980,281.854401 376.960510,279.100891 
	C343.859985,239.687302 310.673920,200.345383 277.657806,160.861359 
	C276.008636,158.889130 274.930695,155.782211 274.918335,153.197281 
	C274.744080,116.716415 274.848206,80.234314 274.742004,43.752926 
	C274.728638,39.155888 276.581879,37.592098 281.000793,37.673374 
	C290.659302,37.851021 300.332581,37.493172 309.979218,37.874588 
	C312.682556,37.981476 315.972931,39.227310 317.879028,41.091045 
	C342.533844,65.198067 366.991089,89.507187 391.476532,113.787170 
	C392.490204,114.792358 393.290619,116.012657 394.190369,117.132736 
	C394.087189,117.674088 393.984009,118.215439 393.880859,118.756790 
	C367.522522,118.756790 341.164215,118.756790 314.805878,118.756790 
	C314.478516,119.485840 314.151154,120.214890 313.823761,120.943947 
	C342.612976,155.061371 371.402191,189.178787 400.416382,223.571854 
z"/>
<path fill="#85270B" opacity="1.000000" stroke="none" 
	d="
M252.491684,131.308624 
	C251.509918,128.706345 250.131744,126.394333 250.122391,124.076790 
	C249.982391,89.414261 250.082550,54.750763 249.952957,20.088142 
	C249.934799,15.226954 251.873383,13.746111 256.508514,13.784304 
	C276.005188,13.944955 295.506134,13.714784 314.999481,14.016398 
	C317.804565,14.059800 321.102112,15.626253 323.262665,17.523258 
	C329.013092,22.572239 334.367767,28.089838 339.677185,33.615814 
	C342.428772,36.479645 345.505829,37.476986 349.429871,37.638893 
	C363.043488,38.200588 376.952393,37.571877 390.187286,40.211937 
	C427.840637,47.722939 456.035004,78.083755 462.567474,116.096947 
	C469.079376,153.990189 452.175995,191.316025 419.209656,211.673019 
	C417.750488,212.574066 415.933014,212.894897 414.282410,213.485992 
	C413.863037,211.794983 413.083374,210.105072 413.078156,208.412766 
	C412.995850,181.749069 412.923828,155.084503 413.089355,128.421616 
	C413.119385,123.581421 411.807739,119.977089 408.278381,116.521042 
	C378.154236,87.022606 348.245697,57.303780 318.069153,27.859438 
	C315.844421,25.688704 312.066376,24.107224 308.958832,24.016327 
	C294.972168,23.607210 280.966827,23.802849 266.968384,23.847414 
	C260.340881,23.868515 259.847595,24.344130 259.840607,30.981256 
	C259.805481,64.311165 259.824982,97.641121 259.801727,130.971039 
	C259.800293,133.037750 259.597595,135.104324 259.488495,137.170975 
	C259.072144,137.332062 258.655762,137.493149 258.239380,137.654251 
	C256.403564,135.634949 254.567749,133.615646 252.491684,131.308624 
z"/>
<path fill="#83260B" opacity="1.000000" stroke="none" 
	d="
M259.829468,256.000000 
	C259.825592,263.330078 259.784210,270.160400 259.833801,276.990082 
	C259.859528,280.533325 259.290588,283.223602 254.729767,283.151398 
	C250.386429,283.082611 250.004089,280.417419 250.006897,277.147919 
	C250.017761,264.487305 249.994736,251.826706 249.993607,239.166107 
	C249.991074,210.513077 249.983978,181.860031 250.014526,153.207031 
	C250.016891,150.986710 250.299271,148.766678 250.557907,144.995178 
	C252.864273,147.270462 254.179733,148.380630 255.275421,149.676620 
	C280.548462,179.570404 305.857025,209.434830 330.940399,239.487122 
	C332.984406,241.936050 334.340851,245.650574 334.498749,248.851883 
	C334.965912,258.324432 334.582458,267.835785 334.716400,277.329376 
	C334.776733,281.605652 332.986603,283.242798 328.726440,283.208221 
	C312.901764,283.079712 297.073242,283.017761 281.250824,283.248108 
	C276.195221,283.321686 274.552124,281.395691 274.576904,276.510132 
	C274.710388,250.190033 274.109650,223.853683 274.873047,197.555176 
	C275.202423,186.208969 267.851624,180.829437 260.803192,174.088028 
	C259.737000,201.300797 259.874390,228.402115 259.829468,256.000000 
z"/>
<path fill="#84270B" opacity="1.000000" stroke="none" 
	d="
M523.242004,344.999939 
	C523.259705,334.676392 523.096619,324.848419 523.337524,315.030334 
	C523.688293,300.728088 529.373108,295.153595 543.602783,294.915009 
	C550.258972,294.803406 556.935059,294.714264 563.575317,295.089630 
	C573.740234,295.664185 579.294556,300.871338 579.987488,311.021820 
	C580.598816,319.975830 580.404541,328.989563 580.436401,337.977386 
	C580.492371,353.794983 580.475708,369.613007 580.436646,385.430725 
	C580.418335,392.854858 580.105591,393.214447 572.945312,393.151672 
	C558.218750,393.022583 559.409546,395.239136 559.358826,379.488434 
	C559.344360,374.993042 559.282776,370.497009 559.338501,366.002472 
	C559.381653,362.526367 557.911072,360.669373 554.294739,360.773590 
	C552.797852,360.816711 551.295959,360.831451 549.800720,360.762939 
	C546.006531,360.589081 544.361023,362.376648 544.401062,366.153137 
	C544.475098,373.145081 544.255737,380.141632 544.410278,387.130707 
	C544.508667,391.582855 542.828674,393.641052 538.221802,393.207336 
	C535.746460,392.974274 533.230652,393.184937 530.733154,393.171295 
	C523.502502,393.131805 523.275574,392.936859 523.256104,385.460846 
	C523.221497,372.140625 523.243469,358.820282 523.242004,344.999939 
M544.147034,335.383789 
	C544.197388,344.594574 544.569824,344.956512 553.673706,344.644592 
	C554.006348,344.633209 554.339417,344.614532 554.671814,344.620300 
	C557.958374,344.677185 559.609131,343.092163 559.602661,339.777954 
	C559.586426,331.456818 559.720581,323.132751 559.533752,314.815674 
	C559.421021,309.795166 557.893066,308.978638 551.322876,308.910461 
	C547.056763,308.866211 544.121948,309.945984 544.168884,314.941071 
	C544.229919,321.431122 544.160217,327.922394 544.147034,335.383789 
z"/>
<path fill="#84270C" opacity="1.000000" stroke="none" 
	d="
M30.747715,381.946533 
	C30.731295,393.172882 30.731295,393.172882 20.208714,393.170685 
	C9.840768,393.168518 9.833345,393.168518 9.832460,382.842651 
	C9.830206,356.525482 9.820465,330.208282 9.847265,303.891113 
	C9.854349,296.934875 10.231625,296.562622 17.239208,296.541504 
	C27.066151,296.511932 36.897316,296.401581 46.719448,296.632751 
	C59.091682,296.923920 64.798553,302.383789 65.364502,314.646667 
	C65.639626,320.608032 66.706726,327.278717 64.547432,332.424988 
	C61.593945,339.464111 61.983707,344.891785 63.559494,352.357605 
	C66.052612,364.169617 64.506302,376.863251 64.286087,389.177002 
	C64.262268,390.509125 61.841877,392.694214 60.299473,392.925507 
	C56.551105,393.487701 52.659149,393.003723 48.836277,393.182098 
	C44.873898,393.366974 43.514996,391.402954 43.533867,387.744110 
	C43.580257,378.750061 43.574963,369.755005 43.492554,360.761261 
	C43.433838,354.353851 39.777073,351.667572 33.736992,354.019135 
	C32.325714,354.568542 30.994738,357.230530 30.919943,358.975952 
	C30.599319,366.458069 30.761726,373.960907 30.747715,381.946533 
M44.313183,312.582062 
	C40.928699,308.892181 36.399357,309.544342 32.799477,311.015076 
	C31.133512,311.695740 30.420897,315.958801 30.206371,318.671295 
	C29.814419,323.627258 30.236113,328.641541 30.090460,333.624786 
	C29.954050,338.291748 32.375877,339.671509 36.605080,339.627899 
	C42.890251,339.563080 44.939526,338.485992 45.031155,333.761810 
	C45.162987,326.965271 44.812653,320.159363 44.313183,312.582062 
z"/>
<path fill="#82260C" opacity="1.000000" stroke="none" 
	d="
M152.953262,322.066650 
	C152.950638,320.245636 152.964371,318.912262 152.941986,317.579468 
	C152.825607,310.647736 149.052582,307.748871 142.629501,310.432556 
	C140.905884,311.152710 139.367126,314.515381 139.322113,316.697571 
	C139.019775,331.355988 139.142456,346.023132 139.129150,360.687469 
	C139.121140,369.519440 139.008820,378.353210 139.157440,387.182587 
	C139.227203,391.327576 137.830261,393.291840 133.400513,393.214264 
	C116.305473,392.914825 118.265083,395.417908 118.208450,378.609314 
	C118.141068,358.612579 118.176071,338.615387 118.224876,318.618530 
	C118.232582,315.460266 118.286102,312.262146 118.770294,309.152802 
	C120.029655,301.065460 124.816658,295.951324 132.948044,295.387909 
	C141.726776,294.779602 150.613068,294.802704 159.393021,295.409760 
	C167.121140,295.944061 171.676758,300.753693 173.188675,308.385620 
	C173.638931,310.658386 173.833191,313.017151 173.838623,315.337250 
	C173.894409,339.166779 173.816666,362.996826 173.957733,386.825653 
	C173.985565,391.527252 172.312637,393.349792 167.518845,393.240906 
	C150.864822,392.862640 153.080414,395.256897 152.978775,379.045868 
	C152.860733,360.216125 152.952332,341.385010 152.953262,322.066650 
z"/>
<path fill="#85270B" opacity="1.000000" stroke="none" 
	d="
M355.000824,128.426880 
	C368.997314,128.429276 382.494110,128.398697 395.990631,128.446350 
	C402.698975,128.470016 403.230011,128.972000 403.240387,135.469376 
	C403.276581,158.130432 403.262451,180.791580 403.231598,203.452652 
	C403.229218,205.201508 402.947876,206.949966 402.796204,208.698593 
	C402.239014,208.989014 401.681854,209.279434 401.124664,209.569839 
	C378.917053,183.197601 356.709442,156.825363 334.501831,130.453125 
	C334.781067,129.777481 335.060272,129.101837 335.339478,128.426193 
	C341.726654,128.426193 348.113861,128.426193 355.000824,128.426880 
z"/>
<path fill="#82260C" opacity="1.000000" stroke="none" 
	d="
M672.018188,354.417999 
	C671.522156,363.437164 670.960510,372.056885 670.830872,380.683105 
	C670.617554,394.875641 671.745361,393.024780 658.044678,393.178162 
	C657.211853,393.187500 656.374146,393.107758 655.546692,393.172180 
	C651.560852,393.482574 649.396912,391.767792 649.892212,387.675140 
	C652.758301,363.991821 645.262512,342.311676 637.177551,320.709808 
	C634.784729,314.316498 632.816528,307.765320 630.581116,301.311646 
	C629.446350,298.035736 630.606995,296.540771 633.963623,296.510437 
	C634.130188,296.508911 634.296814,296.503723 634.463013,296.493256 
	C648.552368,295.605560 648.552856,295.605377 652.417175,309.184570 
	C654.149963,315.273254 655.839355,321.374725 657.638733,327.443634 
	C658.127502,329.092163 658.944702,330.643311 660.863770,332.213867 
	C661.579346,330.482117 662.455444,328.797729 662.983215,327.010498 
	C665.483704,318.542969 668.000549,310.077118 670.276489,301.547943 
	C671.262146,297.854095 673.320496,296.275665 677.068970,296.457214 
	C680.060913,296.602173 683.065002,296.542419 686.062866,296.508911 
	C690.682922,296.457245 690.756104,298.872742 689.551270,302.401337 
	C684.114502,318.324341 678.780029,334.282257 673.409790,350.227966 
	C672.984436,351.490997 672.567505,352.756866 672.018188,354.417999 
z"/>
<path fill="#82260C" opacity="1.000000" stroke="none" 
	d="
M258.666229,342.000061 
	C258.664398,357.145020 258.694672,371.790039 258.646393,386.434814 
	C258.626404,392.492462 257.991760,393.211609 252.139786,393.151794 
	C236.021912,392.987030 237.724792,395.527740 237.663498,378.979736 
	C237.593842,360.174591 237.669815,341.368896 237.636978,322.563538 
	C237.624283,315.301147 237.167282,314.887787 230.079437,314.742523 
	C222.119644,314.579376 222.016296,314.475067 222.008911,306.497437 
	C222.007675,305.166107 222.129318,303.825165 222.010391,302.505219 
	C221.611359,298.076416 223.845703,296.658081 227.968933,296.694000 
	C241.281479,296.809967 254.596924,296.878540 267.908081,296.710785 
	C272.564026,296.652100 274.830536,298.293335 274.397919,303.078369 
	C274.338287,303.738220 274.399475,304.408905 274.402130,305.074554 
	C274.439819,314.495270 274.438263,314.729309 265.251282,314.673370 
	C260.173370,314.642456 258.470215,316.706604 258.629944,321.531677 
	C258.850067,328.180939 258.673370,334.843292 258.666229,342.000061 
z"/>
<path fill="#82260C" opacity="1.000000" stroke="none" 
	d="
M474.087158,384.972046 
	C473.931366,393.095886 473.891144,393.161011 466.142792,393.178223 
	C456.155609,393.200409 446.165741,393.040344 436.182373,393.234100 
	C431.791016,393.319336 430.288239,391.432495 430.298065,387.283966 
	C430.364868,358.987061 430.378632,330.689819 430.297150,302.393005 
	C430.284912,298.132660 431.990051,296.392426 436.240936,296.440735 
	C453.888794,296.641296 451.225647,294.620453 451.363647,311.054291 
	C451.523010,330.028717 451.377563,349.005524 451.422852,367.981171 
	C451.439056,374.765350 452.053589,375.306915 458.883148,375.424194 
	C460.880127,375.458466 462.877930,375.442871 464.875366,375.448212 
	C474.029144,375.472687 474.029144,375.472443 474.087158,384.972046 
z"/>
<path fill="#7F260C" opacity="1.000000" stroke="none" 
	d="
M331.287964,357.560242 
	C324.341309,357.137939 324.080994,356.750763 324.276672,347.809601 
	C324.405029,341.942261 324.986847,341.319061 331.045563,341.300049 
	C343.687042,341.260376 356.330475,341.413483 368.969482,341.233765 
	C373.603088,341.167877 375.919312,342.758606 375.508545,347.577057 
	C375.410004,348.732849 375.406860,349.912750 375.513855,351.067322 
	C375.947632,355.749847 373.943298,357.667877 369.171844,357.601807 
	C356.699097,357.429108 344.222198,357.557037 331.287964,357.560242 
z"/>
<path fill="#0F0301" opacity="1.000000" stroke="none" 
	d="
M544.146851,334.898468 
	C544.160217,327.922394 544.229919,321.431122 544.168884,314.941071 
	C544.121948,309.945984 547.056763,308.866211 551.322876,308.910461 
	C557.893066,308.978638 559.421021,309.795166 559.533752,314.815674 
	C559.720581,323.132751 559.586426,331.456818 559.602661,339.777954 
	C559.609131,343.092163 557.958374,344.677185 554.671814,344.620300 
	C554.339417,344.614532 554.006348,344.633209 553.673706,344.644592 
	C544.569824,344.956512 544.197388,344.594574 544.146851,334.898468 
z"/>
<path fill="#320A03" opacity="1.000000" stroke="none" 
	d="
M44.490646,312.969757 
	C44.812653,320.159363 45.162987,326.965271 45.031155,333.761810 
	C44.939526,338.485992 42.890251,339.563080 36.605080,339.627899 
	C32.375877,339.671509 29.954050,338.291748 30.090460,333.624786 
	C30.236113,328.641541 29.814419,323.627258 30.206371,318.671295 
	C30.420897,315.958801 31.133512,311.695740 32.799477,311.015076 
	C36.399357,309.544342 40.928699,308.892181 44.490646,312.969757 
M40.780910,336.503845 
	C41.540173,335.110138 42.882088,333.745758 42.953999,332.317444 
	C43.212704,327.178955 43.136097,322.016449 43.002716,316.867767 
	C42.910553,313.310211 40.646984,312.034393 37.328934,312.062561 
	C33.859222,312.091980 32.066570,313.795837 32.005684,317.236176 
	C31.932144,321.391235 31.877197,325.548553 31.928528,329.703461 
	C32.012218,336.478027 33.119511,337.416229 40.780910,336.503845 
z"/>
<path fill="#010000" opacity="1.000000" stroke="none" 
	d="
M40.390808,336.656860 
	C33.119511,337.416229 32.012218,336.478027 31.928528,329.703461 
	C31.877197,325.548553 31.932144,321.391235 32.005684,317.236176 
	C32.066570,313.795837 33.859222,312.091980 37.328934,312.062561 
	C40.646984,312.034393 42.910553,313.310211 43.002716,316.867767 
	C43.136097,322.016449 43.212704,327.178955 42.953999,332.317444 
	C42.882088,333.745758 41.540173,335.110138 40.390808,336.656860 
z"/>
</svg>